<?xml version="1.0" encoding="utf-8"?>
<!-- Generator: Adobe Illustrator 22.1.0, SVG Export Plug-In . SVG Version: 6.00 Build 0)  -->
<svg version="1.1" id="Layer_1" xmlns="http://www.w3.org/2000/svg" xmlns:xlink="http://www.w3.org/1999/xlink" x="0px" y="0px"
	 viewBox="0 0 2320.6 969.1" style="enable-background:new 0 0 2320.6 969.1;" xml:space="preserve">
<style type="text/css">
	.st0{fill:#1D1D1B;}
	.st1{fill:#C6C4C3;}
	.st2{fill:#005892;}
	.st3{fill:#FFFFFF;}
</style>
<title>normal</title>
<path class="st0" d="M1809.8,528.2c-10.1,20.6-17.9,29.8-33.3,39.5c-13.5,9.2-29.4,13.8-45.7,13.5c-48.2,0.5-87.6-38.1-88.3-86.5
	c-0.7-48.4,38.1-87.6,86.5-88.3c35.6-0.5,67.7,21.1,80.5,54.4h-24.1c-11-21.3-32.8-34.6-56.9-34.9c-36.7,0.5-66.1,30.5-65.6,67.2
	c0,0.2,0,0.2,0,0.5c-0.9,36.7,27.8,67.2,64.5,68.1c0.5,0,0.7,0,1.1,0c23.6,0,40.2-9.9,56.9-33.7h24.3L1809.8,528.2L1809.8,528.2z"/>
<rect x="1593.4" y="348.5" class="st0" width="20.6" height="38.1"/>
<path class="st0" d="M1289.9,346.2v21.3c-6.9-3-14.2-4.8-21.8-5c-3.9-0.2-7.8,0.7-11.2,2.5c-2.5,1.1-4.6,3.2-5.7,5.7
	c-1.1,6-1.4,11.9-1.1,17.9v23.2h37.6v18.8h-37.6v151h-23.3v-151h-23.6v-19.3h23.6v-26.4c-0.5-8.9,0.7-17.7,3.4-26.2
	c2.5-5.5,6.7-9.9,11.9-12.8c6.4-3.4,13.5-5,20.6-4.8c9.2,0.2,18.1,1.6,27.1,4.4"/>
<path class="st0" d="M1445.9,476.8c-2.1-10.1-6.4-19.5-12.4-28c-5.7-7.1-13.1-13.1-21.6-16.7c-8.7-4.1-18.4-6.4-28.2-6.4
	c-15.6-0.2-30.5,5.5-41.8,16.1c-9.6,9.6-16.3,21.6-19.3,34.9L1445.9,476.8z M1445.9,522.7h23.2c-6,14.5-14.7,27.5-25.7,38.5
	c-7.6,7.1-16.3,12.8-25.9,16.7c-10.3,3.9-21.6,6-32.8,5.7c-27.1,0-48.2-9.2-63.3-27.3c-14.9-17.2-22.9-39-22.7-61.7
	c-0.2-20.9,6.7-41.1,19.3-57.6c15.1-20.9,39.7-33,65.6-32.1c26.6-0.7,51.9,11.5,67.5,33c12.4,16.7,18.8,37.2,18.1,58h-148.7
	c-0.2,17.9,6.4,35.3,18.4,48.4c11.2,12.4,27.3,19.3,44.1,19c8.5,0,16.7-1.6,24.5-4.6c7.3-2.8,14.5-6.7,20.4-11.9
	C1435.1,539.7,1441.1,531.6,1445.9,522.7"/>
<polygon class="st0" points="1514,348.5 1537.2,348.5 1537.2,411.6 1573.9,411.6 1573.9,430.4 1537.2,430.4 1537.2,581.4 
	1514,581.4 1514,430.4 1482.4,430.4 1482.4,411.6 1514,411.6 "/>
<rect x="1593.2" y="411.6" class="st0" width="21.3" height="169.8"/>
<path class="st0" d="M1093.5,426.1c-17.4-0.2-34,7.1-45.7,20.2c-12.6,13.1-19.5,30.5-19,48.6c0,11.9,3,23.9,8.7,34.4
	c16.5,31,55.1,42.4,86,25.9c11-6,20.2-14.9,25.9-25.9c5.7-10.6,8.7-22.3,8.7-34.4c0.5-18.1-6.4-35.6-19-48.6
	C1127.2,433.4,1110.7,426.1,1093.5,426.1 M1158.4,581.4v-28.2c-1.1,1.4-1.8,2.1-3,3.4c-32.6,34.2-86.7,35.6-121.1,3
	c-1.1-0.9-2.1-2.1-3-3c-31.7-34.9-32.1-87.9-1.1-123.4c31-35.1,84.4-38.3,119.5-7.1c2.5,2.3,5,4.6,7.1,7.1
	c15.1,16.7,23.2,38.8,22.7,61.3c0,5.5,0,87.2,0,87.2L1158.4,581.4z"/>
<path class="st0" d="M1920.8,426.1c-17.4-0.2-34,7.1-45.7,20.2c-12.6,13.1-19.5,30.5-19,48.6c0,11.9,3,23.9,8.7,34.4
	c16.5,31,54.8,42.4,85.8,25.9c11-6,20.2-14.9,25.9-25.9c5.7-10.6,8.7-22.3,8.7-34.4c0.5-18.1-6.4-35.6-19-48.6
	C1954.8,433.2,1938,425.9,1920.8,426.1 M1985.7,581.4v-28.2c-1.1,1.4-1.8,2.1-3,3.4c-32.6,34.2-86.7,35.6-121.1,3
	c-1.1-0.9-2.1-2.1-3-3c-31.9-34.6-32.6-87.9-1.8-123.4c31-35.1,84.7-38.1,119.5-7.1c2.5,2.3,4.8,4.6,7.1,7.1
	c15.1,16.7,23.2,38.8,22.7,61.3c0,5.5,0,87.2,0,87.2L1985.7,581.4z"/>
<path class="st0" d="M966.8,483.4H828.7c3-17.7,7.3-31.9,19.5-42.2c11.7-10.3,26.6-16.3,42.4-16.3c9.9,0,19.5,2.3,28.4,6.4
	c8.5,3.9,16.1,9.9,21.8,17l1.6,2.1h24.8l-1.1-2.3c-2.1-3.9-4.6-7.6-7.3-11.2c-15.8-21.6-41.5-34.2-68.4-33.3
	c-26.2-0.7-50.9,11.5-66.3,32.6c-12.8,16.5-19.7,37.2-19.5,58c0,5.3,4.4,9.4,9.6,9.4c0.2,0,0.5,0,0.7,0h140.9
	c-0.7,9.2-3.2,18.4-7.1,26.8c-3.9,6.2-8.3,11.7-13.5,16.7c-6,5.3-13.1,9.4-20.6,12.2c-8,3-16.3,4.6-24.8,4.6
	c-17,0.2-33-6.7-44.5-19.3c-3.2-3.4-6-7.1-8.3-11.2h-24.1c3.9,8.5,8.7,16.3,14.7,23.2c15.6,18.4,36.7,27.5,63.8,27.5
	c11.2,0.2,22.5-1.8,33-5.7c9.9-3.9,18.6-9.6,26.4-16.7c8.7-8.7,15.6-19.5,19.7-31.2c4.1-11.2,6.4-22.9,6.4-34.9
	C977.1,495.8,977.1,483.2,966.8,483.4"/>
<path class="st1" d="M689.9,436.9c26.6,27.5,26.6,71.1,0,98.7l-29.4,30.3V406.6L689.9,436.9z"/>
<path class="st2" d="M660.5,565.8v42.9c0.5,37.9-29.8,69.1-67.9,69.7h-41.8L660.5,565.8z"/>
<path class="st1" d="M521,263.6l29.8,30.1H396l29.4-30.1c25.5-26.4,67.7-27.3,94.1-1.8c0.7,0.7,1.1,1.1,1.8,1.8"/>
<path class="st1" d="M550.9,678.5l-29.8,30.3c-25.5,26.4-67.5,27.3-94.1,1.8c-0.7-0.7-1.1-1.1-1.8-1.8l-29.6-30.3H550.9z"/>
<path class="st2" d="M396,293.9L286.3,406.6v-42.9c-0.5-38.1,29.8-69.3,67.9-69.7l0,0C354.2,293.9,396,293.9,396,293.9z"/>
<path class="st0" d="M592.6,293.9H396L286.3,406.6v202.1c-0.5,38.1,29.8,69.3,67.9,69.7l0,0h196.6l109.7-112.7v-202
	C661,325.6,630.7,294.4,592.6,293.9L592.6,293.9"/>
<path class="st1" d="M286.3,406.6v159.2l-29.6-30.3c-26.6-27.5-26.6-71.1,0-98.7L286.3,406.6z"/>
<path class="st3" d="M546.3,424.5h35.3c-20.2-41.3-62.6-67.2-108.8-66.3c-38.8-0.7-75,17.9-97.1,49.8c-15.8,22.9-24.5,50.2-25,78.2
	c0.5,7.8,6.9,14,14.7,14h199.8c0,0,0,51.4-48.9,74.6s-95.9,7.8-119.5-32.1h-34.4c0,0,24.3,72,111.3,72s108.8-66.3,113.1-78.2
	c5.5-15.8,8.5-32.6,8.7-49.3c0.2-8.5-6.4-15.4-14.7-15.8H385.4c0,0,3-37.2,24.8-56.9c17.2-16.5,39.9-25.9,63.8-25.7
	C502.7,388.2,529.5,401.8,546.3,424.5"/>
<g>
	<path class="st0" d="M2061,404.3h-5v9.9h5c2.1,0.2,3.9-0.2,5.7-1.1c1.1-0.9,1.8-2.3,1.6-3.7c0-1.6-0.5-3-1.8-3.9
		C2064.9,404.5,2062.9,404.1,2061,404.3 M2061.7,401.6c3-0.2,5.7,0.5,8.3,1.8c1.8,1.4,3,3.4,2.8,5.7c0,1.8-0.5,3.4-1.6,4.8
		c-1.1,1.4-2.8,2.1-4.6,2.3l5.7,12.6h-4.6l-5.7-11.9h-6.2v11.9h-3.9v-27.2H2061.7z M2081.4,415.6c0-2.8-0.5-5.5-1.6-8
		c-0.9-2.5-2.5-4.8-4.4-6.7c-1.8-2.1-4.1-3.4-6.7-4.6c-2.5-1.1-5.3-1.6-7.8-1.6c-5.3,0-10.6,2.1-14.2,5.7c-2.1,2.1-3.4,4.4-4.6,6.9
		c-0.9,2.5-1.4,5.5-1.4,8.3c0,2.8,0.5,5.5,1.6,8s2.5,4.8,4.4,6.9c1.8,1.8,4.1,3.4,6.7,4.6c2.5,1.1,5,1.6,7.8,1.6s5.3-0.5,7.8-1.6
		s4.8-2.8,6.9-4.6c1.8-1.8,3.4-4.1,4.4-6.7c0.9-2.5,1.6-5.3,1.6-8 M2061.3,391.9c3,0,6.2,0.7,8.9,1.8c2.8,1.1,5.3,3,7.3,5.3
		c2.1,2.1,3.7,4.8,4.8,7.6c1.1,3,1.6,6,1.6,8.9c0,3.2-0.5,6.2-1.6,8.9c-1.1,2.8-2.8,5.3-5,7.6c-2.1,2.3-4.8,3.9-7.6,5.3
		c-8.5,3.7-18.6,1.6-24.8-5.3c-2.1-2.3-3.9-4.8-5-7.6c-1.1-2.8-1.6-6-1.6-8.9c0-3,0.7-6.2,1.8-8.9c1.1-3,3-5.5,5-7.8
		c2.1-2.1,4.6-3.9,7.3-5C2055.3,392.6,2058.3,391.9,2061.3,391.9"/>
</g>
</svg>
